<svg id="visual" viewBox="0 0 960 540" width="960" height="540" xmlns="http://www.w3.org/2000/svg" xmlns:xlink="http://www.w3.org/1999/xlink" version="1.1"><rect x="0" y="0" width="960" height="540" fill="#FFFFFF"></rect><path d="M591 540L582.3 527.2C573.7 514.3 556.3 488.7 558.2 463C560 437.3 581 411.7 589.2 386C597.3 360.3 592.7 334.7 600 308.8C607.3 283 626.7 257 637.8 231.2C649 205.3 652 179.7 641.3 154C630.7 128.3 606.3 102.7 589.2 77C572 51.3 562 25.7 557 12.8L552 0L960 0L960 12.8C960 25.7 960 51.3 960 77C960 102.7 960 128.3 960 154C960 179.7 960 205.3 960 231.2C960 257 960 283 960 308.8C960 334.7 960 360.3 960 386C960 411.7 960 437.3 960 463C960 488.7 960 514.3 960 527.2L960 540Z" fill="#4FACF7" stroke-linecap="round" stroke-linejoin="miter"></path></svg>